<?xml version="1.0" encoding="UTF-8" standalone="no"?>
<!-- Created with Inkscape (http://www.inkscape.org/) -->

<svg
   xmlns:dc="http://purl.org/dc/elements/1.1/"
   xmlns:cc="http://creativecommons.org/ns#"
   xmlns:rdf="http://www.w3.org/1999/02/22-rdf-syntax-ns#"
   xmlns:svg="http://www.w3.org/2000/svg"
   xmlns="http://www.w3.org/2000/svg"
   xmlns:xlink="http://www.w3.org/1999/xlink"
   xmlns:sodipodi="http://sodipodi.sourceforge.net/DTD/sodipodi-0.dtd"
   xmlns:inkscape="http://www.inkscape.org/namespaces/inkscape"
   width="256"
   height="256"
   id="svg4905"
   version="1.1"
   inkscape:version="0.48.3.1 r9886"
   sodipodi:docname="icon.svg">
  <defs
     id="defs4907">
    <linearGradient
       inkscape:collect="always"
       id="linearGradient3931">
      <stop
         style="stop-color:#2d67bd;stop-opacity:1"
         offset="0"
         id="stop3933" />
      <stop
         style="stop-color:#ffffff;stop-opacity:1"
         offset="1"
         id="stop3935" />
    </linearGradient>
    <linearGradient
       inkscape:collect="always"
       xlink:href="#linearGradient3931"
       id="linearGradient5135"
       gradientUnits="userSpaceOnUse"
       x1="481.39984"
       y1="70.040009"
       x2="412.50595"
       y2="109.83604"
       gradientTransform="matrix(0.39220459,0.26965513,-0.20749398,0.59676994,16.875117,744.36812)" />
    <linearGradient
       inkscape:collect="always"
       xlink:href="#linearGradient3931"
       id="linearGradient5138"
       gradientUnits="userSpaceOnUse"
       x1="418.97433"
       y1="52.106712"
       x2="394.40546"
       y2="97.086258"
       gradientTransform="matrix(1.09147,0.18797112,-0.18797112,1.09147,-267.05732,720.17732)" />
    <linearGradient
       inkscape:collect="always"
       xlink:href="#linearGradient3931"
       id="linearGradient5142"
       gradientUnits="userSpaceOnUse"
       x1="338.93674"
       y1="48.260872"
       x2="371.53949"
       y2="97.253464"
       gradientTransform="matrix(0.89708189,0.25953184,-0.44186433,0.5269068,-166.06993,750.24894)" />
    <linearGradient
       inkscape:collect="always"
       xlink:href="#linearGradient3931"
       id="linearGradient5145"
       gradientUnits="userSpaceOnUse"
       x1="237.44014"
       y1="50.016582"
       x2="357.99542"
       y2="107.87132"
       gradientTransform="matrix(0.40359986,-0.03743486,-0.02791061,0.46208055,-42.489495,873.47126)" />
    <linearGradient
       inkscape:collect="always"
       xlink:href="#linearGradient3931"
       id="linearGradient5148"
       gradientUnits="userSpaceOnUse"
       x1="166.543"
       y1="105.98334"
       x2="349.63495"
       y2="125.0453"
       gradientTransform="matrix(0.1636602,-0.17631182,0.25008204,0.26722538,14.917491,974.1987)" />
    <linearGradient
       inkscape:collect="always"
       xlink:href="#linearGradient3931"
       id="linearGradient4725"
       gradientUnits="userSpaceOnUse"
       gradientTransform="matrix(0.1636602,-0.17631182,0.25008204,0.26722538,14.917491,974.1987)"
       x1="166.543"
       y1="105.98334"
       x2="349.63495"
       y2="125.0453" />
    <linearGradient
       inkscape:collect="always"
       xlink:href="#linearGradient3931"
       id="linearGradient4727"
       gradientUnits="userSpaceOnUse"
       gradientTransform="matrix(0.40359986,-0.03743486,-0.02791061,0.46208055,-42.489495,873.47126)"
       x1="237.44014"
       y1="50.016582"
       x2="357.99542"
       y2="107.87132" />
    <linearGradient
       inkscape:collect="always"
       xlink:href="#linearGradient3931"
       id="linearGradient4729"
       gradientUnits="userSpaceOnUse"
       gradientTransform="matrix(0.89708189,0.25953184,-0.44186433,0.5269068,-166.06993,750.24894)"
       x1="338.93674"
       y1="48.260872"
       x2="371.53949"
       y2="97.253464" />
    <linearGradient
       inkscape:collect="always"
       xlink:href="#linearGradient3931"
       id="linearGradient4731"
       gradientUnits="userSpaceOnUse"
       gradientTransform="matrix(1.09147,0.18797112,-0.18797112,1.09147,-267.05732,720.17732)"
       x1="418.97433"
       y1="52.106712"
       x2="394.40546"
       y2="97.086258" />
    <linearGradient
       inkscape:collect="always"
       xlink:href="#linearGradient3931"
       id="linearGradient4733"
       gradientUnits="userSpaceOnUse"
       gradientTransform="matrix(0.39220459,0.26965513,-0.20749398,0.59676994,16.875117,744.36812)"
       x1="481.39984"
       y1="70.040009"
       x2="412.50595"
       y2="109.83604" />
    <linearGradient
       inkscape:collect="always"
       xlink:href="#linearGradient3931"
       id="linearGradient4756"
       gradientUnits="userSpaceOnUse"
       gradientTransform="matrix(0.39220459,0.26965513,-0.20749398,0.59676994,16.875117,744.36812)"
       x1="481.39984"
       y1="70.040009"
       x2="412.50595"
       y2="109.83604" />
    <linearGradient
       inkscape:collect="always"
       xlink:href="#linearGradient3931"
       id="linearGradient4759"
       gradientUnits="userSpaceOnUse"
       gradientTransform="matrix(1.09147,0.18797112,-0.18797112,1.09147,-267.05732,720.17732)"
       x1="418.97433"
       y1="52.106712"
       x2="394.40546"
       y2="97.086258" />
    <linearGradient
       inkscape:collect="always"
       xlink:href="#linearGradient3931"
       id="linearGradient4762"
       gradientUnits="userSpaceOnUse"
       gradientTransform="matrix(0.89708189,0.25953184,-0.44186433,0.5269068,-166.06993,750.24894)"
       x1="338.93674"
       y1="48.260872"
       x2="371.53949"
       y2="97.253464" />
    <linearGradient
       inkscape:collect="always"
       xlink:href="#linearGradient3931"
       id="linearGradient4765"
       gradientUnits="userSpaceOnUse"
       gradientTransform="matrix(0.40359986,-0.03743486,-0.02791061,0.46208055,-42.489495,873.47126)"
       x1="237.44014"
       y1="50.016582"
       x2="357.99542"
       y2="107.87132" />
    <linearGradient
       inkscape:collect="always"
       xlink:href="#linearGradient3931"
       id="linearGradient4768"
       gradientUnits="userSpaceOnUse"
       gradientTransform="matrix(0.1636602,-0.17631182,0.25008204,0.26722538,14.917491,974.1987)"
       x1="166.543"
       y1="105.98334"
       x2="349.63495"
       y2="125.0453" />
  </defs>
  <sodipodi:namedview
     id="base"
     pagecolor="#8b8b8a"
     bordercolor="#666666"
     borderopacity="1.0"
     inkscape:pageopacity="1"
     inkscape:pageshadow="2"
     inkscape:zoom="1"
     inkscape:cx="2.6649705"
     inkscape:cy="106.93473"
     inkscape:document-units="px"
     inkscape:current-layer="layer1"
     showgrid="false"
     inkscape:window-width="1280"
     inkscape:window-height="974"
     inkscape:window-x="0"
     inkscape:window-y="24"
     inkscape:window-maximized="1"
     inkscape:snap-global="true"
     inkscape:snap-page="true"
     inkscape:showpageshadow="true"
     borderlayer="false" />
  <metadata
     id="metadata4910">
    <rdf:RDF>
      <cc:Work
         rdf:about="">
        <dc:format>image/svg+xml</dc:format>
        <dc:type
           rdf:resource="http://purl.org/dc/dcmitype/StillImage" />
        <dc:title />
      </cc:Work>
    </rdf:RDF>
  </metadata>
  <g
     inkscape:label="Layer 1"
     inkscape:groupmode="layer"
     id="layer1"
     transform="translate(0,-796.36218)">
    <path
       style="fill:#bcf2f6;fill-opacity:1;stroke:none"
       d="m 0,1052.3622 0,-256.00002 256,0 0,256.00002"
       id="path3897"
       inkscape:connector-curvature="0"
       sodipodi:nodetypes="cccc" />
    <path
       style="fill:#5fdd5e;fill-opacity:1;stroke:none"
       d="m 0,967.92715 0,84.43505 256,0 0,-96.39342 c 0,0 -15.43885,-8.36532 -43.48896,-8.52647 -51.50157,-0.29587 -71.2828,31.02331 -120.348097,33.23368 C 51.85467,982.49185 0,967.92715 0,967.92715 z"
       id="path3125"
       inkscape:connector-curvature="0"
       sodipodi:nodetypes="ccccssc" />
    <path
       style="fill:#ea878d;fill-opacity:1;stroke:none"
       d="m 0,988.98352 c 0,0 16.116857,-17.52895 21.864592,-21.47489 10.813232,-7.42352 24.418548,-0.28052 33.635408,-4.39645 5.027188,-2.24497 9.411767,-4.33376 11.75,-10.875 1.54505,-4.3223 -1.170962,-9.95615 0.75,-14.125 1.438588,-3.12201 6.637991,-5.1273 7.125,-8.75 0.353671,-2.63084 -2.875,-5.25 -2.875,-5.25 0,0 3.821532,-3.36961 3.3125,-6.875 -0.939479,-6.46962 -10.502696,-6.72551 -10.4375,-9.625 0.07042,-3.1317 5.131659,-3.81841 4.75,-8.5625 -0.647883,-8.05331 -15.734934,-10.3705 -17.375,-15.9375 -1.131612,-3.84112 3.315338,-7.99312 2.625,-11.9375 -1.25178,-7.15229 -10.625,-18.3125 -10.625,-18.3125 11.145127,6.47404 16.481517,12.30191 12.875,26.875 8.57296,-8.06985 6.976901,-17.98377 2.125,-25.875 -16.730345,-27.21058 -59.75,-30 -59.75,-30"
       id="path4564"
       inkscape:connector-curvature="0"
       sodipodi:nodetypes="cssssscsssssccsc" />
    <path
       style="fill:#ffffff;fill-opacity:1;stroke:none"
       d="m 103.18019,857.69061 92.25,0 c 10.05021,0 22.25962,-5.61296 22.36122,-15.66266 0.14021,-13.86923 -8.15672,-25.50897 -22.01795,-25.50897 -12.57035,0 -21.6145,8.17776 -21.6145,8.17776 0,0 -3.23491,-21.50613 -24.49552,-21.50613 -21.26061,0 -24.73325,21.50613 -24.73325,21.50613 0,0 -6.08968,-8.17776 -19.5,-8.17776 -13.199325,0 -23.220015,12.3293 -22.499995,25.50897 0.47211,8.64175 11.59536,15.66266 20.249995,15.66266 z"
       id="path3899"
       inkscape:connector-curvature="0"
       sodipodi:nodetypes="ssssczcsss" />
    <path
       style="fill:#807e81;fill-opacity:1;stroke:none"
       d="m 105.86396,932.20659 -1.30054,3.74814 -0.97228,-1.10486 1.50261,-2.16551 -2.25391,2.12132 -1.5026,-0.97227 0.7955,-0.7955 -1.01647,-0.13258 -0.30936,-1.01647 1.76777,-0.88388 1.10485,-2.2539 -0.7513,-0.17678 c 0,0 -2.07712,4.77297 -2.2539,4.72878 -0.17678,-0.0442 -2.695846,-3.00521 -2.695846,-3.00521 l 2.121316,-1.10485 -2.563258,0.70711 -0.220971,-1.37002 -1.06066,-0.48614 -0.618719,-0.88388 -0.176776,-1.5468 1.281631,0.39775 2.077126,-0.0442 -3.226175,-0.83969 -0.928077,-0.83968 -0.83969,-1.5468 -0.265165,-1.23744 0.176777,-1.41421 0.707107,-1.37002 3.889087,2.20971 1.635184,-0.7955 -0.04419,-1.41421 -2.342291,-0.26517 -2.695845,-0.7513 0.574525,-1.41421 0.839689,-1.5026 0.132582,-1.37002 0.795496,-0.61872 1.325825,0.66291 1.370019,1.94455 1.502599,1.01646 c 0,0 0.26517,-1.90035 -0.0884,-1.90035 -0.35355,0 -2.077123,-1.59099 -2.077123,-1.59099 l 0.22097,-1.37002 2.563263,1.59099 2.12132,1.32583 1.41421,2.96101 1.23744,1.5026 2.51907,-0.44194 2.51906,-0.26517 1.41422,-2.43068 c 0,0 -1.37002,-1.01646 -1.41422,-1.4584 -0.0442,-0.44195 -0.39774,-3.57973 -0.39774,-3.57973 l 0.17677,-2.12132 1.5468,-1.14905 0.88388,1.41421 1.28163,-0.57452 1.19325,-0.17678 1.01646,0.44194 -1.01646,1.37002 -0.26517,2.51907 2.58909,-3.90603 2.375,2.625 -2.875,1.75 3.625,-1.375 1.375,2.625 -2.625,1 -1,1.125 3.75,-0.5 1.25,0.25 0.375,1.875 -1.125,0.75 1.52249,0.54274 -0.79549,1.06066 1.06066,0 -0.0377,1.0841 0.75,0 -0.3125,0.875 -0.75,-0.0625 1.25,0.5625 0.3125,1.4375 -1.1875,-0.6875 1.3125,1.0625 0,0.25 -1.875,-0.25 1.6875,1.625 1,1.125 -1.56246,-0.1875 -0.875,-1.1875 -1.5625,-0.25 1.8125,1.3125 0.1875,0.875 -0.125,1.25 -0.875,0.75 -1.625,0.0625 -0.4375,-1.25 c 0,0 -0.25,-0.625 -0.5625,-0.625 -0.3125,0 -1.3125,0.4375 -1.3125,0.4375 l 0.5625,1.25 1.125,0.9375 c 0,0 1.8125,-0.0625 1.8125,0.25 0,0.3125 -1.1875,2.125 -1.1875,2.125 l -1.875,-0.5 c 0,0 -0.25,0.1875 -0.0625,0.4375 0.1875,0.25 0.8125,1.1875 0.8125,1.1875 l -1.5625,0.0625 c 0,0 -0.1875,1.0625 -0.4375,0.875 -0.25,-0.1875 -1.4375,-1.75 -1.4375,-1.75 l -0.9375,1.75 -0.6875,-1.625 0.5,2.75 -2.5,-0.5 -0.5625,-2.0625 -0.25,2.3125 -1.4375,0.1875 -1,-0.75 0,-1.4375 -1.3125,1.625 c 0,0 0.875,1.875 0.5625,1.8125 -0.3125,-0.0625 -1.875,-0.375 -1.875,-0.375 l 0.25,-1.5 -0.5,0.25 -0.625,0.5625 -0.125,-1.4375 0.9375,-5.125"
       id="path4681" />
    <path
       style="fill:#7cbd7f;fill-opacity:1;stroke:none"
       d="m 109.17645,929.83159 -1.31249,4.125 c -5.18851,17.07576 -10.236964,51.32334 -8.799624,64.68897 l -2.249997,-0.375 c -1.245378,-15.56279 3.666901,-48.3479 9.049621,-66.06397"
       id="path4568" />
    <path
       style="fill:#ea878d;fill-opacity:1;stroke:none"
       d="m 78.900126,1052.3622 c 0,0 2.146856,-5.4987 2.875,-9.4762 1.085533,-5.9297 -2.637212,-12.0373 -1.75,-18 1.154759,-7.7607 7.798636,-13.9963 9,-21.75 0.300933,-1.9422 -1.013756,-3.69838 -0.625,-5.62496 0.567715,-2.81346 1.166317,-7.16884 4,-7.625 1.716456,-0.27631 3.302054,1.26412 3.9375,3.1875 2.61716,0.6707 4.937764,1.039 7.062504,2.3125 2.2231,1.33246 3.73628,3.59322 5.6173,5.37626 1.74464,1.6538 3.98946,2.8941 5.2577,4.9362 1.02222,1.6461 0.72862,3.8343 1.6875,5.5625 0.76095,1.3715 2.41251,1.7334 2.8125,3.25 0.6691,2.537 -1.46601,5.1279 -1.375,7.75 0.0357,1.0302 0.82555,1.972 0.75,3 -0.15199,2.0682 -1.70503,3.7875 -2.375,5.75 -0.46045,1.3488 -0.46424,2.8623 -1.125,4.125 -2.34475,4.4811 -7.4205,7.136 -9.75,11.625 -3.21674,6.1988 -3.125,5.6012 -3.125,5.6012 z"
       id="path4566"
       inkscape:connector-curvature="0"
       sodipodi:nodetypes="cssssscsssssssssscc" />
    <path
       style="fill:#78787a;fill-opacity:1;stroke:none"
       d="m 154.125,922.98718 0.375,0 -0.1875,-8.71875 4.90625,-2.3125 -0.15625,-1.4375 c 0,0 -2.875,1.71875 -2.53125,1.46875 0.34375,-0.25 2.09375,-2.1875 2.09375,-2.1875 l -4.09375,2.34375 -0.1875,-3.5625 c 0,0 -0.8125,2.84375 -0.78125,2.65625 0.0313,-0.1875 -1.65625,-2.125 -1.65625,-2.125 l 1.15625,2.78125 -2.03125,-1.59375 0.71875,1.4375 -2.875,-1.625 0.59375,1.0625 -0.6875,0.78125 1.125,0.4375 -1.3125,0.375 3.0625,0.0313 -2.8125,0.28125 -0.1875,0.71875 5.0625,0.0313 z"
       id="path4570"
       inkscape:connector-curvature="0" />
    <path
       style="fill:#78787a;fill-opacity:1;stroke:none"
       d="m 174.9375,914.36218 1,0.5 1.4423,-6.83297 8.92723,2.12132 -2.2981,-2.20971 3.71231,-1.59099 -3.49134,-0.30936 0.13258,-2.29809 c 0,0 -2.03293,2.82842 -2.03293,2.38648 0,-0.44194 -0.35355,-2.51907 -0.35355,-2.51907 l -1.76777,-0.0442 0.0442,1.90035 -1.01646,-1.59099 -1.45841,0.7513 0.0884,1.37002 c 0,0 -0.7955,0.79549 -0.92808,0.53033 -0.13258,-0.26517 -1.19324,-1.14905 -1.19324,-1.14905 l 1.01646,-1.5026 -0.88388,-0.48614 -0.7513,1.50261 -2.07713,-1.63519 -0.83969,0.83969 1.85616,1.67938 -1.45841,-0.7955 -0.7513,1.10486 2.2539,0.0884 1.5468,0.66291 -4.19845,0 0.0442,0.88388 4.86136,0 -1.23744,6.62913 z"
       id="path4572"
       inkscape:connector-curvature="0" />
    <path
       style="fill:#78787a;fill-opacity:1;stroke:none"
       d="m 192.9318,936.01977 1.06066,-0.13258 1.5026,-8.92722 1.41422,0.30936 0.57452,2.34229 2.34229,0.66291 -2.16551,-2.65165 4.41942,2.43068 0.48613,-0.35355 -3.13778,-2.38649 4.02167,1.28163 0.22097,-0.83969 -4.15426,-1.10485 3.35876,-0.48614 -0.7513,-0.83969 -2.74004,0.57453 1.90035,-1.5468 -0.61872,-0.7513 -2.60745,1.06066 1.90035,-3.31456 -1.06066,-0.17678 -2.65165,3.53554 -2.03294,-3.0494 1.50261,3.31456 -3.66812,-3.8007 -0.61872,0.53033 2.56326,3.22618 -4.28683,-2.91682 -0.48614,0.57452 2.91682,1.98874 -2.56326,-0.83969 -0.0442,0.7955 5.39169,2.38648 z"
       id="path4574"
       inkscape:connector-curvature="0"
       sodipodi:nodetypes="cccccccccccccccccccccccccccccccccc" />
    <path
       style="fill:#78787a;fill-opacity:1;stroke:none"
       d="m 237.87995,894.4661 1.10763,-0.12309 1.78453,-13.53773 7.32268,-0.79997 -1.96912,-0.92302 c 0,0 1.90759,-0.24615 1.78452,-0.49228 -0.12309,-0.24614 -2.76909,-1.41531 -2.76909,-1.41531 l 2.52294,-0.73843 -1.53837,-1.04609 -1.78452,1.59991 0.3692,-2.21526 -2.33834,-0.61535 -1.90759,3.81517 0.0615,-3.93824 -1.2307,-0.24615 -0.49229,1.10764 -2.89214,-1.72299 0.0615,1.4153 2.39987,3.01523 -4.67667,-4.12286 c 0,0 -0.67689,0.24615 -0.43074,0.49228 0.24613,0.24615 3.50749,3.69211 3.50749,3.69211 l -4.30746,-3.01522 -0.61535,0.73843 2.03067,1.41531 -2.0922,-0.36922 0.12309,0.30768 7.69191,4.24593 z"
       id="path4576"
       inkscape:connector-curvature="0" />
    <path
       style="fill:#78787a;fill-opacity:1;stroke:none"
       d="m 213.83559,902.86842 -1.00738,-0.35745 0.45121,-9.04154 -1.44766,-0.002 -1.06451,2.16407 -2.43003,0.144 2.68481,-2.12426 -4.83856,1.42403 -0.39878,-0.44977 3.57737,-1.65633 -4.20314,0.38732 -0.0353,-0.86756 4.29464,-0.18617 -3.17578,-1.19666 0.91421,-0.6586 2.55253,1.15001 -1.5235,-1.91908 0.76574,-0.60077 2.31855,1.59628 -1.14356,-3.64553 1.07387,0.0553 1.82981,4.02283 2.64082,-2.54121 -2.17988,2.91415 4.39927,-2.9235 0.49028,0.65091 -3.19675,2.59988 4.81355,-1.92731 0.3513,0.66558 -3.27609,1.31536 2.68383,-0.26915 -0.12781,0.78641 -5.7786,1.17189 z"
       id="path4574-7"
       inkscape:connector-curvature="0"
       sodipodi:nodetypes="cccccccccccccccccccccccccccccccccc" />
    <path
       style="fill:#78787a;fill-opacity:1;stroke:none"
       d="m 235.12941,935.5653 -0.45309,0 0.22654,-10.53437 -5.92794,-2.79406 0.18879,-1.73685 c 0,0 3.4737,2.07667 3.05836,1.77461 -0.41533,-0.30206 -2.52976,-2.64303 -2.52976,-2.64303 l 4.94625,2.83182 0.22654,-4.30437 c 0,0 0.9817,3.43594 0.94394,3.2094 -0.0378,-0.22655 2.00116,-2.56752 2.00116,-2.56752 l -1.39704,3.36042 2.45425,-1.92563 -0.86843,1.73685 3.4737,-1.9634 -0.71739,1.28376 0.83066,0.94394 -1.35927,0.52861 1.58582,0.45309 -3.70024,0.0378 3.39818,0.33981 0.22654,0.86843 -6.11673,0.0378 z"
       id="path4570-9"
       inkscape:connector-curvature="0" />
  </g>
</svg>
