<?xml version="1.0" encoding="UTF-8" standalone="no"?>
<!-- Created with Inkscape (http://www.inkscape.org/) -->

<svg
   xmlns:dc="http://purl.org/dc/elements/1.1/"
   xmlns:cc="http://creativecommons.org/ns#"
   xmlns:rdf="http://www.w3.org/1999/02/22-rdf-syntax-ns#"
   xmlns:svg="http://www.w3.org/2000/svg"
   xmlns="http://www.w3.org/2000/svg"
   xmlns:xlink="http://www.w3.org/1999/xlink"
   xmlns:sodipodi="http://sodipodi.sourceforge.net/DTD/sodipodi-0.dtd"
   xmlns:inkscape="http://www.inkscape.org/namespaces/inkscape"
   width="256"
   height="256"
   id="svg4905"
   version="1.1"
   inkscape:version="0.48.3.1 r9886"
   sodipodi:docname="icon.svg">
  <defs
     id="defs4907">
    <linearGradient
       inkscape:collect="always"
       id="linearGradient3931">
      <stop
         style="stop-color:#2d67bd;stop-opacity:1"
         offset="0"
         id="stop3933" />
      <stop
         style="stop-color:#ffffff;stop-opacity:1"
         offset="1"
         id="stop3935" />
    </linearGradient>
    <linearGradient
       inkscape:collect="always"
       xlink:href="#linearGradient3931"
       id="linearGradient5135"
       gradientUnits="userSpaceOnUse"
       x1="481.39984"
       y1="70.040009"
       x2="412.50595"
       y2="109.83604"
       gradientTransform="matrix(0.39220459,0.26965513,-0.20749398,0.59676994,16.875117,744.36812)" />
    <linearGradient
       inkscape:collect="always"
       xlink:href="#linearGradient3931"
       id="linearGradient5138"
       gradientUnits="userSpaceOnUse"
       x1="418.97433"
       y1="52.106712"
       x2="394.40546"
       y2="97.086258"
       gradientTransform="matrix(1.09147,0.18797112,-0.18797112,1.09147,-267.05732,720.17732)" />
    <linearGradient
       inkscape:collect="always"
       xlink:href="#linearGradient3931"
       id="linearGradient5142"
       gradientUnits="userSpaceOnUse"
       x1="338.93674"
       y1="48.260872"
       x2="371.53949"
       y2="97.253464"
       gradientTransform="matrix(0.89708189,0.25953184,-0.44186433,0.5269068,-166.06993,750.24894)" />
    <linearGradient
       inkscape:collect="always"
       xlink:href="#linearGradient3931"
       id="linearGradient5145"
       gradientUnits="userSpaceOnUse"
       x1="237.44014"
       y1="50.016582"
       x2="357.99542"
       y2="107.87132"
       gradientTransform="matrix(0.40359986,-0.03743486,-0.02791061,0.46208055,-42.489495,873.47126)" />
    <linearGradient
       inkscape:collect="always"
       xlink:href="#linearGradient3931"
       id="linearGradient5148"
       gradientUnits="userSpaceOnUse"
       x1="166.543"
       y1="105.98334"
       x2="349.63495"
       y2="125.0453"
       gradientTransform="matrix(0.1636602,-0.17631182,0.25008204,0.26722538,14.917491,974.1987)" />
  </defs>
  <sodipodi:namedview
     id="base"
     pagecolor="#ecf2f6"
     bordercolor="#666666"
     borderopacity="1.0"
     inkscape:pageopacity="1"
     inkscape:pageshadow="2"
     inkscape:zoom="1"
     inkscape:cx="241.92181"
     inkscape:cy="174.13907"
     inkscape:document-units="px"
     inkscape:current-layer="layer1"
     showgrid="false"
     inkscape:window-width="1280"
     inkscape:window-height="974"
     inkscape:window-x="0"
     inkscape:window-y="24"
     inkscape:window-maximized="1" />
  <metadata
     id="metadata4910">
    <rdf:RDF>
      <cc:Work
         rdf:about="">
        <dc:format>image/svg+xml</dc:format>
        <dc:type
           rdf:resource="http://purl.org/dc/dcmitype/StillImage" />
        <dc:title></dc:title>
      </cc:Work>
    </rdf:RDF>
  </metadata>
  <g
     inkscape:label="Layer 1"
     inkscape:groupmode="layer"
     id="layer1"
     transform="translate(0,-796.36218)">
    <g
       id="g5842">
      <path
         id="path4890"
         transform="translate(0,796.36218)"
         d="M 128 106.90625 C 116.35351 106.90625 106.90625 116.35351 106.90625 128 C 106.90625 139.64649 116.35351 149.09375 128 149.09375 C 139.64649 149.09375 149.09375 139.64649 149.09375 128 C 149.09375 116.35351 139.64649 106.90625 128 106.90625 z M 128 113.15625 C 131.85896 113.15625 135 116.26604 135 120.125 C 135 123.98396 131.85896 127.125 128 127.125 C 124.14104 127.125 121 123.98396 121 120.125 C 121 116.26604 124.14104 113.15625 128 113.15625 z M 128 127.875 C 134.56429 127.875 139.875 131.25761 139.875 135.78125 C 139.875 140.30488 134.34553 140.125 127.78125 140.125 C 121.21696 140.125 116.125 140.30488 116.125 135.78125 C 116.125 131.25761 121.43572 127.875 128 127.875 z "
         style="fill:#000000;fill-opacity:1;fill-rule:nonzero;stroke:#000000;stroke-width:0.45530853;stroke-opacity:1" />
      <path
         inkscape:transform-center-y="21.816178"
         inkscape:transform-center-x="18.780635"
         inkscape:export-ydpi="179.95407"
         inkscape:export-xdpi="179.95407"
         inkscape:export-filename="/home/vitalie/share-on-diaspora/assets/path3922.png"
         sodipodi:nodetypes="cccsscssccc"
         inkscape:connector-curvature="0"
         id="path3143"
         d="m 67.990259,973.65499 2.922969,-10.14801 2.334937,3.31712 c 0,0 3.663488,-3.69225 8.723777,-6.88568 5.976367,-3.77154 8.098257,-1.74773 14.128278,-6.33701 3.52101,-2.67975 4.96119,-4.22537 7.97786,-8.50485 -1.1626,4.60412 -2.85546,8.82956 -6.65852,12.55715 -4.11712,4.03543 -6.32642,3.01126 -11.692461,6.94324 -4.890471,3.5835 -8.759447,7.55223 -8.759447,7.55223 l 2.457316,3.09557 z"
         style="fill:url(#linearGradient5148);fill-opacity:1;stroke:none" />
      <path
         inkscape:export-ydpi="179.95407"
         inkscape:export-xdpi="179.95407"
         inkscape:export-filename="/home/vitalie/share-on-diaspora/assets/path3922.png"
         sodipodi:nodetypes="cccsscssccc"
         inkscape:connector-curvature="0"
         id="path3145"
         d="m 50.564795,887.20782 6.781201,13.27758 2.232447,-4.74015 c 0,0 3.878696,3.58434 11.31106,4.94375 6.863087,1.25528 8.518927,-0.29646 16.700977,2.36935 4.64713,1.51409 7.55481,3.71105 12.33445,7.99892 -3.55623,-6.38674 -6.20363,-8.92228 -10.69789,-11.7618 -6.032309,-3.81127 -8.635865,-3.18633 -15.5835,-5.31579 -6.596257,-2.02175 -10.617538,-5.31539 -10.617538,-5.31539 l 2.008801,-3.25959 z"
         style="fill:url(#linearGradient5145);fill-opacity:1;stroke:none" />
      <path
         inkscape:export-ydpi="179.95407"
         inkscape:export-xdpi="179.95407"
         inkscape:export-filename="/home/vitalie/share-on-diaspora/assets/path3922.png"
         sodipodi:nodetypes="csscccccssc"
         inkscape:connector-curvature="0"
         id="path3147"
         d="m 124.60813,899.05996 c -1.88223,-4.32216 -1.82487,-6.57953 -1.21204,-8.89005 0.87193,-3.28767 3.0871,-5.62823 3.79062,-9.63234 0.83314,-4.74187 -3.08376,-9.1031 -3.08376,-9.1031 l 4.10828,-0.45363 -11.37532,-8.21754 -7.07726,9.99524 5.45606,-0.28268 c 0,0 4.25864,4.03803 4.11702,7.75985 -0.12558,3.30024 -1.46478,5.94335 -0.87564,9.49034 0.5515,3.32056 1.55422,5.10148 6.15208,9.33392 z"
         style="fill:url(#linearGradient5142);fill-opacity:1;stroke:none" />
      <path
         inkscape:export-ydpi="179.95407"
         inkscape:export-xdpi="179.95407"
         inkscape:export-filename="/home/vitalie/share-on-diaspora/assets/path3922.png"
         sodipodi:nodetypes="csscccccssc"
         inkscape:connector-curvature="0"
         id="path3149"
         d="m 144.49595,902.32501 c 1.83633,-5.42116 3.31328,-7.17047 6.33061,-9.48013 4.68767,-3.58827 13.0367,-5.41754 19.16169,-11.96834 5.43241,-5.81006 7.80028,-14.4792 7.68896,-14.36696 l 3.40654,2.04304 1.03544,-15.55981 -13.85285,7.05716 3.59382,2.59205 c 0,0 -2.20877,7.23046 -7.0677,13.48739 -3.82931,4.93108 -10.55972,6.80547 -15.06978,11.12271 -3.56567,3.41323 -4.50313,7.54446 -5.22669,15.0729 z"
         style="fill:url(#linearGradient5138);fill-opacity:1;stroke:none" />
      <path
         inkscape:export-filename="/home/vitalie/share-on-diaspora/assets/path3922.png"
         inkscape:export-ydpi="179.95407"
         inkscape:export-xdpi="179.95407"
         sodipodi:nodetypes="csscccccssc"
         inkscape:connector-curvature="0"
         id="path3921"
         d="m 154.5946,921.78598 c 3.42564,-2.46672 6.07261,-3.16741 9.16401,-3.2197 3.81942,-0.0646 5.37792,0.51502 10.94312,1.71271 5.62051,1.20961 12.17309,-0.65628 12.17309,-0.65628 l 0.0931,2.53679 5.43734,-6.52378 -6.18002,-4.3108 0.27436,2.59962 c 0,0 -5.07363,1.78067 -10.13459,0.63597 -4.79026,-1.08347 -7.68145,-2.24567 -11.9941,-1.26073 -3.66784,0.83769 -6.82951,3.4678 -9.77628,8.4862 z"
         style="fill:url(#linearGradient5135);fill-opacity:1;stroke:none" />
      <path
         style="fill:#000000;fill-opacity:1;fill-rule:nonzero;stroke:#010000;stroke-width:1.21467459;stroke-linecap:round;stroke-linejoin:round;stroke-miterlimit:4;stroke-opacity:1"
         d="m 68.662986,995.43679 c 0,14.52861 -11.777808,26.30641 -26.306465,26.30641 -14.528657,0 -26.306459,-11.7778 -26.306459,-26.30641 0,-14.52866 11.777802,-26.30646 26.306459,-26.30646 14.528657,0 26.306465,11.7778 26.306465,26.30646 z"
         id="path4186"
         inkscape:connector-curvature="0" />
      <path
         style="fill:#9a9a99;fill-opacity:1;stroke:none"
         d="m 28.654046,1007.6389 7.144118,5.1905 6.646907,-9.1249 6.646914,9.1755 7.144119,-5.1905 -6.615645,-9.14503 10.789075,-3.48989 -2.728815,-8.39842 -10.750563,3.48107 0.006,-11.32425 -8.830616,0 -0.01917,11.33691 -10.775876,-3.46843 -2.728806,8.39841 10.738468,3.45195 z"
         id="path4698-9"
         inkscape:connector-curvature="0"
         sodipodi:nodetypes="cccccccccccccccc" />
      <path
         style="fill:#ffffff;fill-opacity:1;fill-rule:nonzero;stroke:#010000;stroke-width:0.97544438;stroke-linecap:round;stroke-linejoin:round;stroke-miterlimit:4;stroke-opacity:1"
         d="m 46.903611,875.66588 c 0,10.5003 -8.512177,19.01247 -19.012476,19.01247 -10.500299,0 -19.0124721,-8.51217 -19.0124721,-19.01247 0,-10.5003 8.5121731,-19.01248 19.0124721,-19.01248 10.500299,0 19.012476,8.51218 19.012476,19.01248 z"
         id="path4186-4"
         inkscape:connector-curvature="0" />
      <path
         style="fill:#000000;fill-opacity:1;stroke:none"
         d="m 17.987948,884.48471 5.163271,3.75133 4.803917,-6.59483 4.803927,6.63141 5.163271,-3.75133 -4.781326,-6.60939 7.797586,-2.52225 -1.972193,-6.06979 -7.769756,2.51587 0.0039,-8.18438 -6.382157,0 -0.01385,8.19353 -7.788056,-2.50674 -1.972192,6.06979 7.761016,2.49482 z"
         id="path4698-9-5"
         inkscape:connector-curvature="0"
         sodipodi:nodetypes="cccccccccccccccc" />
      <path
         style="fill:#000000;fill-opacity:1;fill-rule:nonzero;stroke:#010000;stroke-width:0.81253827;stroke-linecap:round;stroke-linejoin:round;stroke-miterlimit:4;stroke-opacity:1"
         d="m 216.01735,836.01154 c 0,9.71872 -7.87859,17.5973 -17.59732,17.5973 -9.71872,0 -17.59731,-7.87858 -17.59731,-17.5973 0,-9.71873 7.87859,-17.59731 17.59731,-17.59731 9.71873,0 17.59732,7.87858 17.59732,17.59731 z"
         id="path4186-2"
         inkscape:connector-curvature="0" />
      <path
         style="fill:#9a9a99;fill-opacity:1;stroke:none"
         d="m 189.25397,844.17395 4.77896,3.47211 4.44635,-6.10396 4.44635,6.13782 4.77895,-3.47211 -4.42544,-6.11743 7.21719,-2.33451 -1.8254,-5.618 -7.19144,2.32861 0.004,-7.57518 -5.90712,0 -0.0123,7.58364 -7.20836,-2.32015 -1.8254,5.618 7.18334,2.30912 z"
         id="path4698-9-9"
         inkscape:connector-curvature="0"
         sodipodi:nodetypes="cccccccccccccccc" />
      <path
         inkscape:transform-center-y="-2.8063283"
         inkscape:transform-center-x="-70.835785"
         sodipodi:nodetypes="cccccccccccccccc"
         inkscape:connector-curvature="0"
         id="path4698-9-9-9"
         d="m 206.41039,924.93934 7.52207,5.46512 6.99856,-9.60767 6.99858,9.66095 7.52209,-5.46511 -6.96566,-9.62885 11.35989,-3.67451 -2.87319,-8.84277 -11.31935,3.66525 0.005,-11.92337 -9.29781,0 -0.0202,11.9367 -11.34598,-3.65193 -2.87319,8.84273 11.3066,3.63457 z"
         style="fill:#000000;fill-opacity:1;stroke:none" />
      <path
         inkscape:transform-center-y="-2.4442827"
         inkscape:transform-center-x="-61.698279"
         sodipodi:nodetypes="cccccccccccccccc"
         inkscape:connector-curvature="0"
         id="path4698-9-9-9-8"
         d="m 103.56256,848.40358 6.55166,4.76004 6.09568,-8.36815 6.09565,8.41456 6.55164,-4.76005 -6.06699,-8.3866 9.89433,-3.20048 -2.50252,-7.70192 -9.85901,3.19239 0.006,-10.38512 -8.09829,0 -0.017,10.39671 -9.88221,-3.18077 -2.502497,7.70192 9.847897,3.16566 z"
         style="fill:#ffffff;fill-opacity:1;stroke:#000000;stroke-width:0.91466725;stroke-miterlimit:4;stroke-opacity:1;stroke-dasharray:none" />
      <path
         sodipodi:nodetypes="scccssssssss"
         inkscape:connector-curvature="0"
         id="rect4855"
         d="m 137.91147,978.84054 26.49459,0 -17.04729,-30.36701 33.48752,30.36701 42.19018,0 c 2.493,0 4.5,2.007 4.5,4.5 l 0,14.875 c 0,2.49296 -2.007,4.49996 -4.5,4.49996 l -85.125,0 c -2.493,0 -4.5,-2.007 -4.5,-4.49996 l 0,-14.875 c 0,-2.493 2.007,-4.5 4.5,-4.5 z"
         style="fill:#ecf2f6;fill-opacity:1;stroke:#1149be;stroke-width:1;stroke-linecap:round;stroke-linejoin:round;stroke-miterlimit:4;stroke-opacity:1" />
      <path
         inkscape:connector-curvature="0"
         id="path5795"
         style="font-size:14px;font-style:normal;font-weight:normal;line-height:125%;letter-spacing:0px;word-spacing:0px;fill:#1149be;fill-opacity:1;stroke:none;font-family:Sans"
         d="m 144.63819,988.13278 0,1.05709 c -0.31592,-0.162 -0.64398,-0.28351 -0.98419,-0.36451 -0.34021,-0.081 -0.69258,-0.1215 -1.05709,-0.12151 -0.55487,10e-6 -0.97204,0.0851 -1.25149,0.25516 -0.27542,0.17011 -0.41313,0.42527 -0.41313,0.76548 0,0.25921 0.0992,0.46374 0.29769,0.6136 0.19846,0.14581 0.5974,0.28554 1.19682,0.41919 l 0.38275,0.085 c 0.79382,0.17011 1.3568,0.4111 1.68891,0.72296 0.33616,0.30782 0.50423,0.73916 0.50424,1.29402 -1e-5,0.63183 -0.25111,1.13202 -0.75332,1.50058 -0.49818,0.36857 -1.18468,0.55285 -2.05951,0.55285 -0.36452,0 -0.74523,-0.0364 -1.14214,-0.10936 -0.39287,-0.0689 -0.80801,-0.17415 -1.24542,-0.31591 l 0,-1.15429 c 0.41311,0.21466 0.82015,0.37667 1.22111,0.48602 0.40097,0.1053 0.79789,0.15796 1.19076,0.15796 0.52651,0 0.93152,-0.0891 1.21504,-0.26732 0.28351,-0.18225 0.42526,-0.43741 0.42527,-0.76547 -1e-5,-0.30377 -0.10329,-0.53665 -0.30984,-0.69866 -0.20251,-0.162 -0.65005,-0.31793 -1.34263,-0.46779 l -0.38882,-0.0911 c -0.69257,-0.1458 -1.19277,-0.36856 -1.50057,-0.66828 -0.30782,-0.30375 -0.46172,-0.71889 -0.46172,-1.24541 0,-0.63993 0.2268,-1.13405 0.68042,-1.48236 0.45362,-0.34831 1.09759,-0.52246 1.93193,-0.52247 0.41311,10e-6 0.80192,0.0304 1.16644,0.0911 0.36451,0.0608 0.70068,0.15188 1.00849,0.27338" />
      <path
         inkscape:connector-curvature="0"
         id="path5797"
         style="font-size:14px;font-style:normal;font-weight:normal;line-height:125%;letter-spacing:0px;word-spacing:0px;fill:#1149be;fill-opacity:1;stroke:none;font-family:Sans"
         d="m 152.44486,990.6297 0,4.10686 -1.11784,0 0,-4.07041 c 0,-0.64396 -0.12556,-1.12593 -0.37667,-1.4459 -0.2511,-0.31996 -0.62777,-0.47994 -1.12999,-0.47994 -0.60347,0 -1.07936,0.19239 -1.42768,0.57714 -0.34832,0.38477 -0.52247,0.90927 -0.52247,1.57349 l 0,3.84562 -1.12391,0 0,-9.45306 1.12391,0 0,3.70589 c 0.26731,-0.40906 0.5812,-0.71484 0.94166,-0.91737 0.36452,-0.20249 0.78371,-0.30374 1.25758,-0.30375 0.78167,10e-6 1.373,0.24301 1.77397,0.72902 0.40095,0.48197 0.60144,1.19278 0.60144,2.13241" />
      <path
         inkscape:connector-curvature="0"
         id="path5799"
         style="font-size:14px;font-style:normal;font-weight:normal;line-height:125%;letter-spacing:0px;word-spacing:0px;fill:#1149be;fill-opacity:1;stroke:none;font-family:Sans"
         d="m 157.77892,991.31621 c -0.90319,0 -1.52893,0.10327 -1.87725,0.30983 -0.34832,0.20656 -0.52247,0.55893 -0.52247,1.05709 0,0.39692 0.1296,0.71283 0.38881,0.94774 0.26326,0.23085 0.61968,0.34629 1.06925,0.34629 0.61967,0 1.11581,-0.21872 1.48843,-0.65613 0.37666,-0.44147 0.56499,-1.02672 0.56499,-1.75574 l 0,-0.24908 -1.11176,0 m 2.22961,-0.46173 0,3.88208 -1.11785,0 0,-1.03279 c -0.25516,0.41311 -0.5731,0.7189 -0.95381,0.91736 -0.38072,0.19441 -0.84648,0.29161 -1.3973,0.29161 -0.69663,0 -1.2515,-0.19441 -1.66461,-0.58322 -0.40907,-0.39287 -0.6136,-0.91736 -0.6136,-1.57349 0,-0.76547 0.25516,-1.34262 0.76548,-1.73144 0.51436,-0.38881 1.27985,-0.58321 2.29643,-0.58322 l 1.56741,0 0,-0.10936 c 0,-0.51436 -0.17011,-0.91127 -0.51031,-1.19074 -0.33617,-0.2835 -0.81004,-0.42526 -1.4216,-0.42527 -0.38883,10e-6 -0.76751,0.0466 -1.13607,0.13973 -0.36857,0.0932 -0.72296,0.23289 -1.06317,0.41919 l 0,-1.03279 c 0.40906,-0.15795 0.80598,-0.2754 1.19074,-0.35236 0.38477,-0.081 0.75941,-0.12149 1.12392,-0.1215 0.98419,10e-6 1.71929,0.25516 2.20531,0.76548 0.48601,0.51032 0.72902,1.2839 0.72903,2.32073" />
      <path
         inkscape:connector-curvature="0"
         id="path5801"
         style="font-size:14px;font-style:normal;font-weight:normal;line-height:125%;letter-spacing:0px;word-spacing:0px;fill:#1149be;fill-opacity:1;stroke:none;font-family:Sans"
         d="m 166.25995,988.97724 c -0.12556,-0.0729 -0.26327,-0.12555 -0.41312,-0.15795 -0.14581,-0.0364 -0.30782,-0.0547 -0.48602,-0.0547 -0.63182,10e-6 -1.11785,0.20656 -1.45806,0.61968 -0.33616,0.40907 -0.50424,0.99836 -0.50424,1.76789 l 0,3.58439 -1.12392,0 0,-6.80426 1.12392,0 0,1.05708 c 0.23491,-0.41311 0.5407,-0.71889 0.91736,-0.91736 0.37666,-0.20249 0.83432,-0.30375 1.373,-0.30376 0.077,10e-6 0.16201,0.006 0.25516,0.0182 0.0932,0.008 0.19643,0.0223 0.30984,0.0426 l 0.006,1.14822" />
      <path
         inkscape:connector-curvature="0"
         id="path5803"
         style="font-size:14px;font-style:normal;font-weight:normal;line-height:125%;letter-spacing:0px;word-spacing:0px;fill:#1149be;fill-opacity:1;stroke:none;font-family:Sans"
         d="m 172.99738,991.05497 0,0.54676 -5.13965,0 c 0.0486,0.76954 0.27946,1.35681 0.69258,1.76183 0.41716,0.40096 0.99634,0.60145 1.73751,0.60144 0.42932,10e-6 0.84445,-0.0526 1.24543,-0.15795 0.405,-0.10531 0.80597,-0.26326 1.2029,-0.47387 l 0,1.05709 c -0.40098,0.17011 -0.81207,0.29971 -1.23328,0.38882 -0.42122,0.0891 -0.84851,0.13365 -1.28187,0.13365 -1.08545,0 -1.9461,-0.31591 -2.58198,-0.94774 -0.63182,-0.63182 -0.94773,-1.4864 -0.94773,-2.56374 0,-1.11379 0.29971,-1.99673 0.89913,-2.64881 0.60347,-0.65611 1.41553,-0.98417 2.43617,-0.98418 0.91533,10e-6 1.63829,0.29567 2.16886,0.88698 0.53461,0.58728 0.80192,1.38718 0.80193,2.39972 m -1.11784,-0.32806 c -0.008,-0.61158 -0.18024,-1.09962 -0.5164,-1.46413 -0.33212,-0.36451 -0.77358,-0.54677 -1.3244,-0.54678 -0.62373,10e-6 -1.12392,0.17619 -1.50059,0.52855 -0.37261,0.35237 -0.58727,0.84851 -0.64397,1.48843 l 3.98536,-0.006" />
      <path
         inkscape:connector-curvature="0"
         id="path5805"
         style="font-size:14px;font-style:normal;font-weight:normal;line-height:125%;letter-spacing:0px;word-spacing:0px;fill:#1149be;fill-opacity:1;stroke:none;font-family:Sans"
         d="m 179.89885,986.00037 0,1.93193 2.30251,0 0,0.86876 -2.30251,0 0,3.69374 c -1e-5,0.55487 0.0749,0.91128 0.22478,1.06924 0.1539,0.15796 0.46374,0.23693 0.9295,0.23693 l 1.14823,0 0,0.93559 -1.14823,0 c -0.86268,0 -1.45805,-0.15998 -1.78611,-0.47994 -0.32806,-0.32401 -0.49209,-0.91129 -0.49209,-1.76182 l 0,-3.69374 -0.82016,0 0,-0.86876 0.82016,0 0,-1.93193 1.12392,0" />
      <path
         inkscape:connector-curvature="0"
         id="path5807"
         style="font-size:14px;font-style:normal;font-weight:normal;line-height:125%;letter-spacing:0px;word-spacing:0px;fill:#1149be;fill-opacity:1;stroke:none;font-family:Sans"
         d="m 189.33368,990.6297 0,4.10686 -1.11785,0 0,-4.07041 c 0,-0.64396 -0.12555,-1.12593 -0.37665,-1.4459 -0.25112,-0.31996 -0.62779,-0.47994 -1.13,-0.47994 -0.60348,0 -1.07937,0.19239 -1.42768,0.57714 -0.34831,0.38477 -0.52247,0.90927 -0.52247,1.57349 l 0,3.84562 -1.12392,0 0,-9.45306 1.12392,0 0,3.70589 c 0.2673,-0.40906 0.58119,-0.71484 0.94166,-0.91737 0.36451,-0.20249 0.7837,-0.30374 1.25758,-0.30375 0.78167,10e-6 1.37299,0.24301 1.77396,0.72902 0.40096,0.48197 0.60145,1.19278 0.60145,2.13241" />
      <path
         inkscape:connector-curvature="0"
         id="path5809"
         style="font-size:14px;font-style:normal;font-weight:normal;line-height:125%;letter-spacing:0px;word-spacing:0px;fill:#1149be;fill-opacity:1;stroke:none;font-family:Sans"
         d="m 191.57544,987.9323 1.11784,0 0,6.80426 -1.11784,0 0,-6.80426 m 0,-2.6488 1.11784,0 0,1.41552 -1.11784,0 0,-1.41552" />
      <path
         inkscape:connector-curvature="0"
         id="path5811"
         style="font-size:14px;font-style:normal;font-weight:normal;line-height:125%;letter-spacing:0px;word-spacing:0px;fill:#1149be;fill-opacity:1;stroke:none;font-family:Sans"
         d="m 199.36389,988.13278 0,1.05709 c -0.31591,-0.162 -0.64397,-0.28351 -0.98418,-0.36451 -0.34022,-0.081 -0.69258,-0.1215 -1.05709,-0.12151 -0.55488,10e-6 -0.97205,0.0851 -1.25151,0.25516 -0.27541,0.17011 -0.41311,0.42527 -0.41311,0.76548 0,0.25921 0.0992,0.46374 0.29769,0.6136 0.19845,0.14581 0.59739,0.28554 1.19682,0.41919 l 0.38273,0.085 c 0.79384,0.17011 1.3568,0.4111 1.68892,0.72296 0.33616,0.30782 0.50424,0.73916 0.50425,1.29402 -1e-5,0.63183 -0.25112,1.13202 -0.75333,1.50058 -0.49818,0.36857 -1.18468,0.55285 -2.0595,0.55285 -0.36452,0 -0.74524,-0.0364 -1.14215,-0.10936 -0.39287,-0.0689 -0.80801,-0.17415 -1.24543,-0.31591 l 0,-1.15429 c 0.41312,0.21466 0.82016,0.37667 1.22113,0.48602 0.40096,0.1053 0.79788,0.15796 1.19074,0.15796 0.52652,0 0.93153,-0.0891 1.21505,-0.26732 0.2835,-0.18225 0.42526,-0.43741 0.42526,-0.76547 0,-0.30377 -0.10328,-0.53665 -0.30983,-0.69866 -0.20251,-0.162 -0.65006,-0.31793 -1.34263,-0.46779 l -0.38881,-0.0911 c -0.69258,-0.1458 -1.19277,-0.36856 -1.50059,-0.66828 -0.3078,-0.30375 -0.46171,-0.71889 -0.46171,-1.24541 0,-0.63993 0.22681,-1.13405 0.68043,-1.48236 0.45361,-0.34831 1.09758,-0.52246 1.93191,-0.52247 0.41312,10e-6 0.80193,0.0304 1.16645,0.0911 0.36452,0.0608 0.70067,0.15188 1.00849,0.27338" />
      <path
         style="fill:#000000;fill-opacity:1;fill-rule:nonzero;stroke:none"
         d="m 207.48756,980.44006 15.66035,0 c 1.41572,0 2.55545,1.13973 2.55545,2.55546 l 0,15.48357 c 0,1.41572 -1.13973,2.55541 -2.55545,2.55541 l -15.66035,0 c -1.41573,0 -2.55546,-1.13969 -2.55546,-2.55541 l 0,-15.48357 c 0,-1.41573 1.13973,-2.55546 2.55546,-2.55546 z"
         id="rect4884"
         inkscape:connector-curvature="0" />
      <path
         style="fill:#ffffff;fill-opacity:1;stroke:none"
         d="m 209.45142,995.73487 3.02766,2.19973 2.81695,-3.86711 2.81696,3.88856 3.02766,-2.19973 -2.8037,-3.87563 4.57239,-1.47902 -1.15647,-3.55923 -4.55607,1.47527 0.003,-4.7992 -3.7424,0 -0.008,4.80456 -4.5668,-1.46991 -1.15646,3.55923 4.55095,1.46293 z"
         id="path4698-9-9-9-9"
         inkscape:connector-curvature="0"
         sodipodi:nodetypes="cccccccccccccccc"
         inkscape:transform-center-x="-28.512203"
         inkscape:transform-center-y="-1.1295584" />
    </g>
  </g>
</svg>
